<?xml version="1.0" encoding="iso-8859-1"?>
<!-- Generator: Adobe Illustrator 19.0.0, SVG Export Plug-In . SVG Version: 6.00 Build 0)  -->
<svg xmlns="http://www.w3.org/2000/svg" xmlns:xlink="http://www.w3.org/1999/xlink" version="1.1" id="Layer_1" x="0px" y="0px" viewBox="0 0 512 512" style="enable-background:new 0 0 512 512;" xml:space="preserve" width="512px" height="512px">
<g>
	<g>
		<g>
			<path d="M511.932,436.106l-31.464-239.768c18.451-13.553,30.458-35.39,30.458-59.988c0-41.026-33.377-74.402-74.404-74.402     c-14.706,0-28.417,4.306-39.973,11.699l1.936-19.111c0.449-4.433-2.78-8.39-7.213-8.84c-4.435-0.46-8.39,2.781-8.84,7.213     l-2.791,27.561h-28.493l3.105-25.784c0.532-4.423-2.622-8.442-7.045-8.974c-4.413-0.526-8.44,2.622-8.974,7.045l-3.338,27.713     H168.613l3.105-25.784c0.532-4.423-2.621-8.442-7.045-8.974c-4.413-0.526-8.44,2.62-8.974,7.045l-3.338,27.713h-27.48     l3.105-25.784c0.532-4.423-2.621-8.442-7.045-8.974c-4.417-0.526-8.44,2.62-8.974,7.045L108.63,80.47H36.078     c-4.22,0-7.726,3.252-8.044,7.458L0.023,457.671c-0.17,2.238,0.602,4.448,2.129,6.093c1.526,1.647,3.67,2.583,5.916,2.583h72.966     c4.456,0,8.067-3.611,8.067-8.067c0-4.456-3.611-8.067-8.067-8.067H16.769l19.749-260.666h348.058     c13.42,13.107,31.75,21.206,51.945,21.206c1.452,0,2.891-0.053,4.323-0.136L422.69,450.213h-312.61     c-4.456,0-8.067,3.611-8.067,8.067c0,4.456,3.611,8.067,8.067,8.067h320.09c4.219,0,7.726-3.251,8.045-7.458l1.036-13.667h64.682     c2.322,0,4.533-1.001,6.064-2.747C511.528,440.73,512.233,438.408,511.932,436.106z M372.047,173.416H37.739l5.819-76.81h63.129     l-2.563,21.276c-0.532,4.423,2.62,8.442,7.045,8.974c0.328,0.039,0.652,0.059,0.975,0.059c4.024,0,7.506-3.007,7.998-7.103     l2.796-23.205h27.48l-2.563,21.276c-0.532,4.423,2.62,8.442,7.045,8.974c0.328,0.039,0.652,0.059,0.975,0.059     c4.024,0,7.506-3.007,7.999-7.103l2.796-23.205h166.282l-2.562,21.276c-0.532,4.423,2.622,8.442,7.045,8.974     c0.328,0.039,0.653,0.059,0.974,0.059c4.024,0,7.506-3.009,8-7.103l2.794-23.205h24.467     c-7.304,11.508-11.553,25.135-11.553,39.745C362.117,149.843,365.744,162.495,372.047,173.416z M436.52,194.618     c-32.129,0-58.269-26.139-58.269-58.268c0-32.129,26.14-58.268,58.269-58.268c32.129,0,58.269,26.139,58.269,58.268     C494.789,168.479,468.649,194.618,436.52,194.618z M440.472,429.089v-0.001l16.767-221.292c2.762-0.802,5.465-1.744,8.086-2.847     l29.413,224.14H440.472z" fill="#FFFFFF"/>
			<path d="M335.111,233.265h-31.418c-4.456,0-8.067,3.612-8.067,8.067c0,4.456,3.611,8.067,8.067,8.067h31.418     c4.456,0,8.067-3.611,8.067-8.067C343.178,236.876,339.567,233.265,335.111,233.265z" fill="#FFFFFF"/>
			<path d="M391.409,249.399c4.456,0,8.067-3.611,8.067-8.067c0-4.455-3.611-8.067-8.067-8.067h-31.418     c-4.456,0-8.067,3.612-8.067,8.067c0,4.456,3.611,8.067,8.067,8.067H391.409z" fill="#FFFFFF"/>
			<path d="M104.406,280.382H72.987c-4.456,0-8.067,3.611-8.067,8.067s3.611,8.067,8.067,8.067h31.418     c4.456,0,8.067-3.611,8.067-8.067C112.473,283.994,108.861,280.382,104.406,280.382z" fill="#FFFFFF"/>
			<path d="M160.703,280.382h-31.418c-4.456,0-8.067,3.611-8.067,8.067s3.611,8.067,8.067,8.067h31.418     c4.456,0,8.067-3.611,8.067-8.067C168.77,283.994,165.159,280.382,160.703,280.382z" fill="#FFFFFF"/>
			<path d="M216.999,280.382h-31.418c-4.456,0-8.067,3.611-8.067,8.067s3.611,8.067,8.067,8.067h31.418     c4.456,0,8.067-3.611,8.067-8.067C225.066,283.994,221.456,280.382,216.999,280.382z" fill="#FFFFFF"/>
			<path d="M273.298,296.516c4.456,0,8.067-3.611,8.067-8.067s-3.611-8.067-8.067-8.067H241.88c-4.456,0-8.067,3.611-8.067,8.067     s3.611,8.067,8.067,8.067H273.298z" fill="#FFFFFF"/>
			<path d="M290.111,288.449c0,4.456,3.611,8.067,8.067,8.067h31.418c4.456,0,8.067-3.611,8.067-8.067s-3.611-8.067-8.067-8.067     h-31.418C293.722,280.382,290.111,283.994,290.111,288.449z" fill="#FFFFFF"/>
			<path d="M346.409,288.449c0,4.456,3.611,8.067,8.067,8.067h31.418c4.455,0,8.067-3.611,8.067-8.067s-3.612-8.067-8.067-8.067     h-31.418C350.02,280.382,346.409,283.994,346.409,288.449z" fill="#FFFFFF"/>
			<path d="M59.405,335.568c0,4.456,3.611,8.067,8.067,8.067h31.416c4.456,0,8.067-3.611,8.067-8.067     c0-4.456-3.611-8.067-8.067-8.067H67.473C63.016,327.501,59.405,331.112,59.405,335.568z" fill="#FFFFFF"/>
			<path d="M115.703,335.568c0,4.456,3.611,8.067,8.067,8.067h31.416c4.456,0,8.067-3.611,8.067-8.067     c0-4.456-3.611-8.067-8.067-8.067H123.77C119.315,327.501,115.703,331.112,115.703,335.568z" fill="#FFFFFF"/>
			<path d="M171.999,335.568c0,4.456,3.611,8.067,8.067,8.067h31.418c4.456,0,8.067-3.611,8.067-8.067     c0-4.456-3.611-8.067-8.067-8.067h-31.418C175.611,327.501,171.999,331.112,171.999,335.568z" fill="#FFFFFF"/>
			<path d="M228.298,335.568c0,4.456,3.611,8.067,8.067,8.067h31.418c4.456,0,8.067-3.611,8.067-8.067     c0-4.456-3.611-8.067-8.067-8.067h-31.418C231.91,327.501,228.298,331.112,228.298,335.568z" fill="#FFFFFF"/>
			<path d="M284.596,335.568c0,4.456,3.611,8.067,8.067,8.067h31.418c4.456,0,8.067-3.611,8.067-8.067     c0-4.456-3.611-8.067-8.067-8.067h-31.418C288.207,327.501,284.596,331.112,284.596,335.568z" fill="#FFFFFF"/>
			<path d="M340.895,335.568c0,4.456,3.611,8.067,8.067,8.067h31.418c4.456,0,8.067-3.611,8.067-8.067     c0-4.456-3.611-8.067-8.067-8.067h-31.418C344.506,327.501,340.895,331.112,340.895,335.568z" fill="#FFFFFF"/>
			<path d="M93.376,374.619H61.958c-4.456,0-8.067,3.611-8.067,8.067s3.611,8.067,8.067,8.067h31.418     c4.456,0,8.067-3.611,8.067-8.067S97.831,374.619,93.376,374.619z" fill="#FFFFFF"/>
			<path d="M110.189,382.686c0,4.456,3.611,8.067,8.067,8.067h31.418c4.456,0,8.067-3.611,8.067-8.067s-3.611-8.067-8.067-8.067     h-31.418C113.8,374.619,110.189,378.23,110.189,382.686z" fill="#FFFFFF"/>
			<path d="M166.484,382.686c0,4.456,3.612,8.067,8.067,8.067h31.418c4.456,0,8.067-3.611,8.067-8.067s-3.611-8.067-8.067-8.067     h-31.418C170.096,374.619,166.484,378.23,166.484,382.686z" fill="#FFFFFF"/>
			<path d="M222.783,382.686c0,4.456,3.611,8.067,8.067,8.067h31.418c4.456,0,8.067-3.611,8.067-8.067s-3.611-8.067-8.067-8.067     H230.85C226.395,374.619,222.783,378.23,222.783,382.686z" fill="#FFFFFF"/>
			<path d="M452.94,117.236l-22.026,21.223l-10.823-10.393c-3.213-3.086-8.321-2.982-11.407,0.232     c-3.085,3.213-2.982,8.32,0.232,11.406l16.421,15.767c1.561,1.499,3.573,2.248,5.587,2.248c2.018,0,4.036-0.753,5.598-2.259     l27.614-26.608c3.208-3.091,3.302-8.198,0.211-11.406C461.257,114.241,456.15,114.144,452.94,117.236z" fill="#FFFFFF"/>
		</g>
	</g>
</g>
<g>
</g>
<g>
</g>
<g>
</g>
<g>
</g>
<g>
</g>
<g>
</g>
<g>
</g>
<g>
</g>
<g>
</g>
<g>
</g>
<g>
</g>
<g>
</g>
<g>
</g>
<g>
</g>
<g>
</g>
</svg>
