<?xml version="1.0" encoding="iso-8859-1"?>
<!-- Generator: Adobe Illustrator 19.0.0, SVG Export Plug-In . SVG Version: 6.00 Build 0)  -->
<svg xmlns="http://www.w3.org/2000/svg" xmlns:xlink="http://www.w3.org/1999/xlink" version="1.1" id="Layer_1" x="0px" y="0px" viewBox="0 0 512 512" style="enable-background:new 0 0 512 512;" xml:space="preserve" width="512px" height="512px">
<g>
	<g>
		<path d="M426.108,115.326L398.97,93.218c-1.353-1.102-3.046-1.705-4.791-1.705h-58.245c-4.19,0-7.585,3.396-7.585,7.585v6.442    h-13.868v-5.325c0-18.321-14.899-33.226-33.214-33.226H114.539c-0.334,0-0.666,0.022-0.996,0.066    C91.377,69.994,71.245,79.844,55.323,95.54c-15.925,15.698-26.064,35.694-29.321,57.826L10.118,261.41    c-0.61,4.145,2.256,7.999,6.401,8.608c4.142,0.608,7.998-2.256,8.608-6.402l15.883-108.042    c5.599-38.031,36.008-68.152,74.041-73.413h125.101v62.775c0,4.189,3.395,7.585,7.585,7.585c4.19,0,7.585-3.396,7.585-7.585    V82.161h25.946c9.95,0,18.044,8.1,18.044,18.056v74.283c0,9.95-8.094,18.044-18.044,18.044h-25.946v-20.782    c0-4.189-3.395-7.585-7.585-7.585c-4.19,0-7.585,3.396-7.585,7.585v20.782h-95.088c-18.975,0-35.549,12.845-40.306,31.244    l-25.573,99.241l-62.813,0.154l4.91-33.405c0.61-4.145-2.256-7.999-6.401-8.608c-4.15-0.608-7.999,2.256-8.608,6.402    c0,0-6.199,42.205-6.204,42.25C0.049,329.976,0,437.426,0,437.426c0,4.189,3.395,7.585,7.585,7.585h200.988    c4.19,0,7.585-3.396,7.585-7.585v-64.733c0-27.288-22.201-49.491-49.49-49.491H94.804l14.993-58.185h26.403    c3.556,0,6.634-2.47,7.404-5.941l11.41-51.366h111.447v15.243h-21.9c-4.19,0-7.585,3.396-7.585,7.585s3.395,7.585,7.585,7.585    h3.79c-2.373,4.291-3.641,9.135-3.641,14.177v78.296c0,4.189,3.395,7.585,7.585,7.585h43.512c4.19,0,7.585-3.396,7.585-7.585    v-78.295c0-5.139-1.332-9.971-3.662-14.177h3.812c4.19,0,7.585-3.396,7.585-7.585s-3.395-7.585-7.585-7.585h-21.911v-15.252    c18.146-0.197,32.849-15.013,32.849-33.205v-3.491h13.868v6.453c0,4.189,3.395,7.585,7.585,7.585h58.245    c1.746,0,3.438-0.602,4.791-1.705l27.138-22.108c1.768-1.44,2.794-3.6,2.794-5.88v-34.146    C428.902,118.925,427.876,116.766,426.108,115.326z M166.669,338.374c18.924,0,34.319,15.396,34.319,34.319v57.147H15.17v-91.467    H166.669z M130.115,249.848h-16.409l5.738-22.271c2.533-9.793,10.337-17.092,19.886-19.215L130.115,249.848z M288.224,252.303    v70.711h-28.342v-70.711c0-3.791,1.474-7.352,4.151-10.029c2.675-2.675,6.232-4.149,10.015-4.149    C281.865,238.126,288.224,244.486,288.224,252.303z M328.35,155.838h-13.868v-35.126h13.868V155.838z M386.594,169.875H343.52    v-63.192h43.074V169.875z M413.732,151.748l-11.967,9.749V115.06l11.967,9.749V151.748z" fill="#b5b5b5"/>
	</g>
</g>
<g>
	<g>
		<path d="M114.007,117.381c-2.963-2.962-7.765-2.962-10.728,0l-27.058,27.058c-2.962,2.962-2.962,7.765,0,10.726    c1.482,1.481,3.423,2.222,5.364,2.222s3.883-0.74,5.364-2.222l27.058-27.058C116.969,125.145,116.969,120.342,114.007,117.381z" fill="#b5b5b5"/>
	</g>
</g>
<g>
	<g>
		<path d="M147.57,117.381c-2.964-2.962-7.766-2.962-10.728,0l-27.058,27.058c-2.962,2.962-2.962,7.765,0,10.726    c1.482,1.481,3.423,2.222,5.364,2.222s3.883-0.74,5.364-2.222l27.058-27.058C150.533,125.145,150.533,120.342,147.57,117.381z" fill="#b5b5b5"/>
	</g>
</g>
<g>
	<g>
		<path d="M181.132,117.381c-2.963-2.962-7.765-2.962-10.727,0l-27.058,27.058c-2.962,2.961-2.962,7.764-0.001,10.726    c1.482,1.481,3.423,2.222,5.364,2.222s3.883-0.74,5.364-2.222l27.058-27.058C184.094,125.145,184.094,120.342,181.132,117.381z" fill="#b5b5b5"/>
	</g>
</g>
<g>
	<g>
		<path d="M457.084,140.69l-10.619-10.618c-2.963-2.962-7.765-2.962-10.727,0c-2.962,2.962-2.962,7.765,0,10.726l10.618,10.618    c1.482,1.481,3.423,2.222,5.364,2.222c1.941,0,3.883-0.74,5.364-2.222C460.046,148.454,460.046,143.651,457.084,140.69z" fill="#b5b5b5"/>
	</g>
</g>
<g>
	<g>
		<path d="M483.432,140.69l-10.619-10.618c-2.963-2.962-7.765-2.962-10.727,0c-2.962,2.962-2.962,7.765,0,10.726l10.618,10.618    c1.482,1.481,3.423,2.222,5.364,2.222c1.941,0,3.883-0.74,5.364-2.222C486.395,148.454,486.395,143.651,483.432,140.69z" fill="#b5b5b5"/>
	</g>
</g>
<g>
	<g>
		<path d="M509.779,140.69l-10.618-10.618c-2.963-2.962-7.765-2.962-10.727,0c-2.962,2.962-2.962,7.765,0,10.726l10.618,10.618    c1.482,1.481,3.423,2.222,5.364,2.222c1.941,0,3.883-0.74,5.364-2.222C512.74,148.455,512.74,143.652,509.779,140.69z" fill="#b5b5b5"/>
	</g>
</g>
<g>
</g>
<g>
</g>
<g>
</g>
<g>
</g>
<g>
</g>
<g>
</g>
<g>
</g>
<g>
</g>
<g>
</g>
<g>
</g>
<g>
</g>
<g>
</g>
<g>
</g>
<g>
</g>
<g>
</g>
</svg>
