<?xml version="1.0" encoding="iso-8859-1"?>
<!-- Generator: Adobe Illustrator 19.0.0, SVG Export Plug-In . SVG Version: 6.00 Build 0)  -->
<svg xmlns="http://www.w3.org/2000/svg" xmlns:xlink="http://www.w3.org/1999/xlink" version="1.1" id="Capa_1" x="0px" y="0px" viewBox="0 0 508 508" style="enable-background:new 0 0 508 508;" xml:space="preserve" width="512px" height="512px">
<g>
	<g>
		<path d="M196.6,135.25c-63.3,0-114.7,51.5-114.7,114.7c0,63.3,51.5,114.7,114.7,114.7c63.3,0,114.7-51.5,114.7-114.7    C311.4,186.75,259.9,135.25,196.6,135.25z M196.6,348.25c-54.2,0-98.3-44.1-98.3-98.3c0-54.2,44.1-98.3,98.3-98.3    c54.2,0,98.3,44.1,98.3,98.3C294.9,304.15,250.9,348.25,196.6,348.25z" fill="#77bc25"/>
	</g>
</g>
<g>
	<g>
		<path d="M393.3,364.75v-0.1v-32.8h12.3c22.5-1.1,26.8-22.1,24-29.9l-9.1-41c-5.9-22.7-28-19.3-28-19.3    c-8.4-100.8-93-180.3-195.9-180.3C88.2,61.45,0,149.75,0,258.15v122.9c0,22.6,18.4,41,41,41h409.7v24.6H508v-81.9H393.3z     M393.3,258.15c0,0,8.4-2,11.2,6.4l9.1,41c0.5,2.4,0,8.8-8,10h-12.3V258.15z M377,381.05c0,13.6-11,24.6-24.6,24.6H41    c-13.6,0-24.6-11-24.6-24.6v-122.9c0-99.4,80.9-180.3,180.3-180.3S377,158.75,377,258.15V381.05z M467,430.25v-24.6h-82.1    c5.2-6.9,8.4-15.3,8.4-24.6h98.3v49.2H467z" fill="#77bc25"/>
	</g>
</g>
<g>
	<g>
		<rect x="188.5" y="241.75" width="16.4" height="16.4" fill="#77bc25"/>
	</g>
</g>
<g>
	<g>
		<rect x="221.2" y="241.75" width="16.4" height="16.4" fill="#77bc25"/>
	</g>
</g>
<g>
	<g>
		<rect x="155.7" y="241.75" width="16.4" height="16.4" fill="#77bc25"/>
	</g>
</g>
<g>
</g>
<g>
</g>
<g>
</g>
<g>
</g>
<g>
</g>
<g>
</g>
<g>
</g>
<g>
</g>
<g>
</g>
<g>
</g>
<g>
</g>
<g>
</g>
<g>
</g>
<g>
</g>
<g>
</g>
</svg>
