<?xml version="1.0" encoding="iso-8859-1"?>
<!-- Generator: Adobe Illustrator 19.0.0, SVG Export Plug-In . SVG Version: 6.00 Build 0)  -->
<svg xmlns="http://www.w3.org/2000/svg" xmlns:xlink="http://www.w3.org/1999/xlink" version="1.1" id="Layer_1" x="0px" y="0px" viewBox="0 0 512 512" style="enable-background:new 0 0 512 512;" xml:space="preserve" width="512px" height="512px">
<g>
	<g>
		<path d="M263.576,323.954h-15.151v0.001H30.249v158.661v1.339h218.175h233.326v-48.283v-15.151v-33.132v-15.151v-48.283H263.576z     M248.424,372.237v15.151v33.132v15.151v31.793H45.4V339.106h203.024V372.237z M466.6,468.804H263.575v-33.132H466.6V468.804z     M466.6,420.521H263.575v-33.132H466.6V420.521z M466.6,372.237H263.575v-33.132H466.6V372.237z" fill="#77bc25"/>
	</g>
</g>
<g>
	<g>
		<path d="M0.544,0v143.142h120.949v30.184h269.014v-30.184h120.949V0H0.544z M375.356,158.175H136.644v-15.033h238.712V158.175z     M390.507,127.991H121.493H15.695V15.151h480.61v112.84H390.507z" fill="#77bc25"/>
	</g>
</g>
<g>
	<g>
		<path d="M336.301,24.08H321.15H190.85h-15.151H30.249v94.982h145.45h15.151H321.15h15.151h145.45V24.08H336.301z M175.699,103.911    H45.4v-64.68h130.299V103.911z M321.15,103.911H190.85v-64.68H321.15V103.911z M466.6,103.911H336.301v-64.68H466.6V103.911z" fill="#77bc25"/>
	</g>
</g>
<g>
	<g>
		<path d="M480.064,295.91c3.16-4.284,5.328-9.354,6.126-14.891l7.318-50.771H385.277l7.318,50.77    c0.798,5.536,2.967,10.608,6.126,14.892h-32.404v-24.893h-21.534V251.66H323.15v15.151h6.483v4.206h-37.416v-4.206h7.299V251.66    h-22.45v19.357h-42.127V251.66h-21.634v15.151h6.483v4.206h-37.416v-4.206h7.298V251.66H167.22v19.357h-21.534v24.893H0.544V512    h510.912V295.91H480.064z M476.018,245.4l-4.822,33.459c-1.278,8.862-8.994,15.546-17.949,15.546h-27.708    c-8.954,0-16.671-6.683-17.949-15.547l-4.822-33.458H476.018z M160.836,286.168h6.383h67.718h42.127h67.718h6.383v9.742H160.836    V286.168z M496.306,496.849H15.695V311.062h129.989h220.632h129.99V496.849z" fill="#77bc25"/>
	</g>
</g>
<g>
	<g>
		<rect x="88.968" y="80.634" width="38.484" height="15.151" fill="#77bc25"/>
	</g>
</g>
<g>
	<g>
		<rect x="135.532" y="80.634" width="15.151" height="15.142" fill="#77bc25"/>
	</g>
</g>
<g>
	<g>
		<rect x="120.856" y="361.959" width="38.484" height="15.151" fill="#77bc25"/>
	</g>
</g>
<g>
	<g>
		<rect x="167.42" y="361.959" width="15.151" height="15.141" fill="#77bc25"/>
	</g>
</g>
<g>
	<g>
		<rect x="340.738" y="348.101" width="38.484" height="15.151" fill="#77bc25"/>
	</g>
</g>
<g>
	<g>
		<rect x="387.302" y="348.101" width="15.151" height="15.142" fill="#77bc25"/>
	</g>
</g>
<g>
	<g>
		<rect x="340.738" y="396.382" width="38.484" height="15.151" fill="#77bc25"/>
	</g>
</g>
<g>
	<g>
		<rect x="387.302" y="396.382" width="15.151" height="15.14" fill="#77bc25"/>
	</g>
</g>
<g>
	<g>
		<rect x="340.738" y="444.664" width="38.484" height="15.151" fill="#77bc25"/>
	</g>
</g>
<g>
	<g>
		<rect x="387.302" y="444.664" width="15.151" height="15.141" fill="#77bc25"/>
	</g>
</g>
<g>
	<g>
		<rect x="231.963" y="80.634" width="38.484" height="15.151" fill="#77bc25"/>
	</g>
</g>
<g>
	<g>
		<rect x="278.528" y="80.634" width="15.151" height="15.142" fill="#77bc25"/>
	</g>
</g>
<g>
	<g>
		<rect x="378.929" y="80.634" width="38.484" height="15.151" fill="#77bc25"/>
	</g>
</g>
<g>
	<g>
		<rect x="425.493" y="80.634" width="15.151" height="15.142" fill="#77bc25"/>
	</g>
</g>
<g>
</g>
<g>
</g>
<g>
</g>
<g>
</g>
<g>
</g>
<g>
</g>
<g>
</g>
<g>
</g>
<g>
</g>
<g>
</g>
<g>
</g>
<g>
</g>
<g>
</g>
<g>
</g>
<g>
</g>
</svg>
