<?xml version="1.0" encoding="utf-8"?><svg xmlns="http://www.w3.org/2000/svg" xmlns:xlink="http://www.w3.org/1999/xlink"><symbol viewBox="0 0 22 22" id="balloon" xmlns="http://www.w3.org/2000/svg"><path d="M19.1 8c0-3.4-2.3-8-7.8-8-6.2 0-8.4 4.6-8.4 8 0 1.2.3 2.5.8 3.6.3.7 1.1 1.7 1.2 1.8l1.9 2.2h8.4l1.9-2.2c.1-.2 1.1-1.5 1.4-2.2.4-1.1.6-2.1.6-3.2zM11.2 18.1H13l1.1-1.3h-1.7l-1.2 1.3zm-2.1 1.3H13V22H9.1v-2.6zm.5-2.6H7.9L9 18.1h1.7l-1.1-1.3z"/></symbol><symbol viewBox="0 0 33 33" id="bedrooms" xmlns="http://www.w3.org/2000/svg"><path d="M3.8 12.5c0-1.7 1.4-3 3.1-3h7c1.1 0 2 .5 2.6 1.4.6-.8 1.5-1.4 2.6-1.4h7c1.7 0 3.1 1.4 3.1 3v.1h.8v-3c0-1.8-1.5-3.3-3.4-3.3H6.4C4.5 6.3 3 7.8 3 9.7v3h.8v-.2zM31.7 14H1.3c-.7 0-1.3.6-1.3 1.3v7.4c0 .7.6 1.3 1.3 1.3h.5l-.6 1.8c-.1.4.1.8.4.9h.2c.3 0 .6-.2.7-.5l.9-2.2h26.2l.8 2.2c.1.3.4.5.7.5h.2c.4-.1.6-.5.4-.9l-.6-1.8h.5c.7 0 1.3-.6 1.3-1.3v-7.4c.1-.7-.5-1.3-1.2-1.3z"/><path d="M19.1 10.9c-.9 0-1.7.7-1.7 1.6v.1h10.3v-.1c0-.9-.7-1.6-1.7-1.6h-6.9zm-12.2 0c-.9 0-1.7.7-1.7 1.6v.1h10.3v-.1c0-.9-.7-1.6-1.7-1.6H6.9z"/></symbol></svg>