<?xml version="1.0" encoding="utf-8"?><svg xmlns="http://www.w3.org/2000/svg" xmlns:xlink="http://www.w3.org/1999/xlink"><symbol viewBox="0 0 36 52" id="arrow" xmlns="http://www.w3.org/2000/svg"><path d="M25.836-.001L.014 26l25.822 26.001 9.631-9.565L19.145 26 35.467 9.564z" opacity=".9"/></symbol><symbol viewBox="0 0 48.9 39.8" id="check" xmlns="http://www.w3.org/2000/svg"><path d="M48.2 8.4L40.5.7c-.9-.9-2.4-.9-3.3 0L19.1 18.8l-7.4-7.4c-.9-.9-2.4-.9-3.3 0L.7 19.1c-.9.9-.9 2.4 0 3.3l8.7 8.7.3.3 7.7 7.7c.9.9 2.4.9 3.3 0l27.5-27.5c.9-.8.9-2.3 0-3.2z"/></symbol><symbol viewBox="0 0 46 46" id="cog" xmlns="http://www.w3.org/2000/svg"><path d="M41.1 26.3c-.2 1-.4 1.9-.8 2.8l4.1 2.8-3 5.1-4.4-2.1c-.6.7-1.3 1.4-2.1 2.1l2.1 4.5-5.1 2.9-2.8-4.1c-.9.3-1.9.6-2.8.8l-.4 4.9H20l-.4-4.9c-1-.2-1.9-.4-2.8-.8L14 44.4l-5.1-2.9L11 37c-.7-.6-1.4-1.3-2.1-2.1L4.5 37l-2.9-5.1 4.1-2.8c-.3-.9-.6-1.9-.8-2.8L0 25.9V20l4.9-.4c.2-1 .4-1.9.8-2.8L1.6 14l2.9-5.1L9 11.1c.6-.7 1.3-1.4 2.1-2.1L8.9 4.5 14 1.6l2.8 4.1c.9-.3 1.9-.6 2.8-.8L20 0h5.9l.4 4.9c1 .2 1.9.4 2.8.8l2.8-4.1L37 4.5 34.9 9c.7.6 1.4 1.3 2.1 2.1L41.5 9l2.9 5.1-4.1 2.8c.3.9.6 1.9.8 2.8l4.9.3v5.9l-4.9.4zM34.5 23c0-6.4-5.1-11.5-11.5-11.5S11.5 16.6 11.5 23 16.6 34.5 23 34.5c6.3 0 11.5-5.2 11.5-11.5z"/></symbol><symbol viewBox="0 0 37 37" id="pluse" xmlns="http://www.w3.org/2000/svg"><path d="M-.062 0H37v37.031H-.062V0zM16 9v6.938c-2.291 0-4.646.093-6.937.093 0 1.459-.063 3.511-.063 4.97h6.969c0 2.29.031 4.677.031 6.968 1.458 0 3.51-.063 4.969-.063 0-2.291-.031-4.677-.031-6.968h7c0-1.458.03-3.48.03-4.938-2.29 0-4.739.031-7.03.031 0-2.291-.032-4.74-.032-7.03H16z" opacity=".7"/></symbol><symbol viewBox="0 0 41 40" id="user" xmlns="http://www.w3.org/2000/svg"><path d="M27.8 22.1c3.1-2.3 5-6 5-9.8C32.8 5.5 27.3 0 20.5 0 13.8 0 8.3 5.5 8.3 12.2c0 4 1.9 7.6 5 9.8C5.5 24.8 0 31.8 0 40h41.1c0-8.2-5.5-15.2-13.3-17.9z"/></symbol></svg>