<?xml version="1.0" encoding="utf-8"?><svg xmlns="http://www.w3.org/2000/svg" xmlns:xlink="http://www.w3.org/1999/xlink"><symbol viewBox="0 0 68 68" id="logo" xmlns="http://www.w3.org/2000/svg"><path d="M68 34c0 18.8-15.2 34-34 34S0 52.8 0 34 15.2 0 34 0s34 15.2 34 34zm-46.9-1.6c0 1.1.2 2.1.6 3 .4.9 1 1.7 1.7 2.4s1.6 1.2 2.7 1.6c1.1.4 2.2.6 3.3.6 1.5 0 3.1-.4 4.4-1.1 1.4-.7 2.6-1.7 3.7-3.1l.2.9c.2 1.1.8 1.9 1.6 2.5.8.6 2 .8 3.5.8.5 0 1.2 0 1.9-.1s1.4-.2 2.2-.3v-7.3c-.8-.1-1.3-.3-1.6-.6s-.5-.9-.5-1.7v-4.6c0-3.4-1-5.9-3.1-7.6-2.1-1.7-5-2.5-8.8-2.5-4 0-7.6 1-10.7 3l2.5 5.4c1.3-.8 2.5-1.5 3.6-1.9 1.1-.4 2.4-.7 3.8-.7 1.5 0 2.5.3 3.2.8.7.5 1 1.4 1 2.5v.7c-1.3-.6-2.9-.9-4.8-.9-1.5 0-2.9.2-4.1.6-1.3.4-2.3 1-3.2 1.7-.9.7-1.6 1.6-2.1 2.6-.8 1-1 2.1-1 3.3zm25.8 12.7H21.4v7.6h25.5v-7.6zM29.2 31.6c0-.8.3-1.4 1-2 .7-.5 1.6-.8 2.6-.8.5 0 1 .1 1.6.2.6.1 1.2.3 1.7.5v1.8c0 .3-.1.6-.3.9-.2.3-.5.6-.8.8-.5.3-.9.5-1.5.7-.5.2-1 .2-1.6.3-.8 0-1.5-.2-2-.6-.4-.6-.7-1.1-.7-1.8z"/></symbol></svg>