<?xml version="1.0" encoding="utf-8"?><svg xmlns="http://www.w3.org/2000/svg" xmlns:xlink="http://www.w3.org/1999/xlink"><symbol viewBox="0 0 605.113 605.113" id="camera" xmlns="http://www.w3.org/2000/svg"><path d="M529.473 113.459h-56.729l-18.91-37.82C442.695 53.628 436.91 37.82 416.016 37.82H189.097c-20.895 0-27.797 18.04-37.82 37.819l-18.91 37.82H75.639C33.867 113.459 0 147.326 0 189.098v302.556c0 41.771 33.867 75.639 75.639 75.639h453.835c41.771 0 75.639-33.867 75.639-75.639V189.098c-.002-41.771-33.869-75.639-75.64-75.639zM302.556 491.654c-83.543 0-151.278-67.734-151.278-151.277s67.735-151.278 151.278-151.278c83.543 0 151.278 67.735 151.278 151.278S386.1 491.654 302.556 491.654z"/><path d="M302.556 226.918c-62.667 0-113.459 50.792-113.459 113.459 0 62.668 50.792 113.459 113.459 113.459s113.459-50.791 113.459-113.459-50.792-113.459-113.459-113.459z"/></symbol><symbol viewBox="0 0 510 510" id="clock" xmlns="http://www.w3.org/2000/svg"><path d="M255 0C114.75 0 0 114.75 0 255s114.75 255 255 255 255-114.75 255-255S395.25 0 255 0zm0 459c-112.2 0-204-91.8-204-204S142.8 51 255 51s204 91.8 204 204-91.8 204-204 204z"/><path d="M267.75 127.5H229.5v153l132.6 81.6 20.4-33.15-114.75-68.85z"/></symbol><symbol viewBox="0 0 91 91" id="icon-marker" xmlns="http://www.w3.org/2000/svg"><path d="M66.9 41.8c0-11.3-9.1-20.4-20.4-20.4-11.3 0-20.4 9.1-20.4 20.4 0 11.3 20.4 32.4 20.4 32.4s20.4-21.1 20.4-32.4zM37 41.4c0-5.2 4.3-9.5 9.5-9.5s9.5 4.2 9.5 9.5c0 5.2-4.2 9.5-9.5 9.5-5.2 0-9.5-4.3-9.5-9.5z"/></symbol><symbol viewBox="0 0 124 124" id="icon-soc1" xmlns="http://www.w3.org/2000/svg"><path d="M50.1 62.4v44.4c0 .6.5 1.2 1.2 1.2h16.5c.6 0 1.2-.5 1.2-1.2V61.6h11.9c.6 0 1.1-.5 1.2-1.1l1-13.5c.1-.7-.5-1.3-1.2-1.3h-13v-9.6c0-2.3 1.8-4.1 4.1-4.1h9.2c.6 0 1.2-.5 1.2-1.2V17.3c0-.6-.5-1.2-1.2-1.2H66.6c-9.1 0-16.5 7.4-16.5 16.5v13.1h-8.2c-.6 0-1.2.5-1.2 1.2v13.6c0 .6.5 1.2 1.2 1.2h8.2v.7z"/></symbol><symbol viewBox="0 0 124 124" id="icon-soc2" xmlns="http://www.w3.org/2000/svg"><path d="M67.8 83.8c-5.5-.4-7.8-3.1-12.1-5.7-1.9 10-4.2 19.7-9.5 26.3-1.6 1.9-4.7 1-4.8-1.5-.8-16 4.7-28.7 7.4-42-5.1-8.7.6-26.1 11.5-21.8 13.4 5.3-11.6 32.2 5.2 35.6C83 78.1 90.2 44.3 79.3 33.3c-15.7-15.9-45.6-.4-41.9 22.4.7 4.3 4.3 6.3 3.9 10.6-.3 2.7-3 4.2-5.4 3.1-6.9-3.2-9.1-10.3-8.8-19.4.6-17.2 15.5-29.3 30.4-31 18.9-2.1 36.6 6.9 39 24.7 2.8 19.9-8.5 41.6-28.7 40.1z"/></symbol><symbol viewBox="0 0 124 124" id="icon-soc3" xmlns="http://www.w3.org/2000/svg"><path d="M87.2 33.6c-3.1 0-5.6 2.5-5.6 5.6 0 3.1 2.5 5.6 5.6 5.6 3.1 0 5.6-2.5 5.6-5.6 0-3.1-2.5-5.6-5.6-5.6zm-25 7.2c-13 0-23.6 10.6-23.6 23.6S49.2 88 62.2 88s23.6-10.6 23.6-23.6-10.6-23.6-23.6-23.6zm0 38.8c-8.4 0-15.1-6.8-15.1-15.1 0-8.4 6.8-15.1 15.1-15.1 8.4 0 15.1 6.8 15.1 15.1s-6.8 15.1-15.1 15.1zm47.7-34.8C109.9 28.9 97 16 81.1 16H43c-15.9 0-28.8 12.9-28.8 28.8v38.1c0 15.9 12.9 28.8 28.8 28.8h38c15.9 0 28.8-12.9 28.8-28.8V44.8zm-9.1 38c0 10.9-8.9 19.8-19.8 19.8H43c-10.9 0-19.8-8.9-19.8-19.8v-38C23.2 33.8 32 25 43 25h38c10.9 0 19.8 8.9 19.8 19.8v38z"/></symbol><symbol id="icon-soc4" viewBox="0 0 124 124" xml:space="preserve" xmlns="http://www.w3.org/2000/svg"><style>.gst1{fill-rule:evenodd;clip-rule:evenodd;fill:#333033}</style><g id="gXMLID_55_"><g id="gXMLID_56_"><g id="gXMLID_65_"><path d="M106.3 36.6c-2.8 1.3-6 2.1-9 2.6 1.5-.2 3.6-2.9 4.5-3.9 1.3-1.6 2.4-3.5 3-5.5.1-.2.1-.4 0-.5-.2-.1-.3 0-.5 0-3.4 1.8-6.9 3.2-10.7 4.1-.3.1-.5 0-.7-.2-.3-.4-.6-.7-.9-1-1.6-1.3-3.3-2.4-5.2-3.2-2.5-1-5.3-1.5-8-1.3-2.6.2-5.2.9-7.5 2.1-2.3 1.2-4.4 2.9-6.1 5-1.7 2.1-3 4.6-3.6 7.3-.6 2.6-.6 5.1-.2 7.7.1.4 0 .5-.4.4-14.8-2.1-27-7.3-36.9-18.6-.4-.5-.7-.5-1 0-4.3 6.5-2.2 16.9 3.2 22.1.7.7 1.5 1.4 2.3 2-.3.1-3.9-.3-7.1-2-.4-.3-.6-.1-.7.4 0 .7 0 1.3.1 2.1.8 6.6 5.4 12.7 11.6 15 .7.3 1.6.6 2.4.7-1.4.3-2.9.5-7 .2-.5-.1-.7.2-.5.6C30.4 81.1 37 83.6 42 85c.7.1 1.3.1 2 .3 0 .1-.1.1-.1.1-1.6 2.5-7.3 4.4-10 5.3-4.8 1.7-10.1 2.4-15.2 1.9-.8-.1-1-.1-1.2 0-.2.1 0 .3.2.5 1 .7 2.1 1.3 3.2 1.9 3.2 1.7 6.6 3.1 10.1 4.1 18.2 5 38.8 1.3 52.5-12.3C94.2 76.2 98 61.5 98 46.7c0-.6.7-.9 1.1-1.2 2.8-2.1 5-4.6 7.1-7.4.5-.6.4-1.2.4-1.4v-.1c0-.2.1-.2-.3 0z" id="gXMLID_66_"/></g><g id="gXMLID_63_"><path class="gst1" d="M43.9 101c7.5 0 .3 0 0 0 1 0-.1 0 0 0z" id="gXMLID_64_"/></g><g id="gXMLID_61_"><path class="gst1" d="M43.9 101c-.1 0-1.5 0 0 0 0 0-.3 0 0 0z" id="gXMLID_62_"/></g><g id="gXMLID_59_"><path class="gst1" d="M46.9 101.1c0-.2 1.6 0 0 0 0-.1.2 0 0 0z" id="gXMLID_60_"/></g><g id="gXMLID_57_"><path class="gst1" d="M78.5 27.9c-.1.1-.2.1-.4 0h.4z" id="gXMLID_58_"/></g></g></g></symbol><symbol viewBox="0 0 511.626 511.626" id="popular-com" xmlns="http://www.w3.org/2000/svg"><path d="M477.371 127.44c-22.843-28.074-53.871-50.249-93.076-66.523-39.204-16.272-82.035-24.41-128.478-24.41-34.643 0-67.762 4.805-99.357 14.417-31.595 9.611-58.812 22.602-81.653 38.97-22.845 16.37-41.018 35.832-54.534 58.385C6.757 170.833 0 194.484 0 219.228c0 28.549 8.61 55.3 25.837 80.234 17.227 24.931 40.778 45.871 70.664 62.811-2.096 7.611-4.57 14.846-7.426 21.693-2.855 6.852-5.424 12.474-7.708 16.851-2.286 4.377-5.376 9.233-9.281 14.562-3.899 5.328-6.849 9.089-8.848 11.275-1.997 2.19-5.28 5.812-9.851 10.849-4.565 5.048-7.517 8.329-8.848 9.855-.193.089-.953.952-2.285 2.567-1.331 1.615-1.999 2.423-1.999 2.423l-1.713 2.566c-.953 1.431-1.381 2.334-1.287 2.707.096.373-.094 1.331-.57 2.851-.477 1.526-.428 2.669.142 3.433v.284c.765 3.429 2.43 6.187 4.998 8.277 2.568 2.092 5.474 2.95 8.708 2.563 12.375-1.522 23.223-3.606 32.548-6.276 49.87-12.758 93.649-35.782 131.334-69.097 14.272 1.522 28.072 2.286 41.396 2.286 46.442 0 89.271-8.138 128.479-24.417 39.208-16.272 70.233-38.448 93.072-66.517 22.843-28.062 34.263-58.663 34.263-91.781.001-33.119-11.418-63.718-34.254-91.787z"/></symbol><symbol viewBox="0 0 512 512" id="popular-eye" xmlns="http://www.w3.org/2000/svg"><path d="M256 96C144.341 96 47.559 161.021 0 256c47.559 94.979 144.341 160 256 160 111.656 0 208.439-65.021 256-160-47.559-94.979-144.344-160-256-160zm126.225 84.852c30.082 19.187 55.572 44.887 74.719 75.148-19.146 30.261-44.639 55.961-74.719 75.148C344.428 355.257 300.779 368 256 368c-44.78 0-88.428-12.743-126.225-36.852C99.695 311.96 74.205 286.26 55.058 256c19.146-30.262 44.637-55.962 74.717-75.148a235.143 235.143 0 0 1 5.929-3.65C130.725 190.866 128 205.613 128 221c0 70.691 57.308 128 128 128 70.691 0 128-57.309 128-128 0-15.387-2.725-30.134-7.703-43.799a240.633 240.633 0 0 1 5.928 3.651zM256 205c0 26.51-21.49 48-48 48s-48-21.49-48-48 21.49-48 48-48 48 21.49 48 48z"/></symbol><symbol viewBox="0 0 51.997 51.997" id="popular-like" xmlns="http://www.w3.org/2000/svg"><path d="M51.911 16.242c-.759-8.354-6.672-14.415-14.072-14.415-4.93 0-9.444 2.653-11.984 6.905-2.517-4.307-6.846-6.906-11.697-6.906C6.759 1.826.845 7.887.087 16.241c-.06.369-.306 2.311.442 5.478 1.078 4.568 3.568 8.723 7.199 12.013l18.115 16.439 18.426-16.438c3.631-3.291 6.121-7.445 7.199-12.014.748-3.166.502-5.108.443-5.477z"/></symbol><symbol viewBox="0 0 59 59" id="popular-share" xmlns="http://www.w3.org/2000/svg"><path d="M47 39a9.934 9.934 0 0 0-7.071 2.929c-.524.524-.975 1.1-1.365 1.709l-17.28-10.489A9.93 9.93 0 0 0 22 29.456a9.949 9.949 0 0 0-.715-3.693l17.284-10.409C40.345 18.142 43.456 20 47 20c5.514 0 10-4.486 10-10S52.514 0 47 0 37 4.486 37 10a9.94 9.94 0 0 0 .667 3.562L20.361 23.985c-1.788-2.724-4.866-4.529-8.361-4.529-5.514 0-10 4.486-10 10s4.486 10 10 10c3.495 0 6.572-1.805 8.36-4.529L37.664 45.43A9.987 9.987 0 0 0 37 49a9.932 9.932 0 0 0 2.929 7.071C41.818 57.96 44.329 59 47 59s5.182-1.04 7.071-2.929C55.96 54.183 57 51.671 57 49s-1.04-5.183-2.929-7.071A9.934 9.934 0 0 0 47 39z"/></symbol><symbol viewBox="0 0 60 60" id="popular-video" xmlns="http://www.w3.org/2000/svg"><path d="M40.693 17.777H36v-5c0-1.654-1.346-3-3-3H1a1 1 0 1 0 0 2h32c.551 0 1 .448 1 1v5H3.307A3.31 3.31 0 0 0 0 21.084v25.387a3.31 3.31 0 0 0 3.307 3.307h37.386A3.31 3.31 0 0 0 44 46.471V21.084a3.31 3.31 0 0 0-3.307-3.307zm15.541-.445c-.545 0-1.077.117-1.58.35L46 22.138v23.279l8.654 4.456a3.75 3.75 0 0 0 1.58.35A3.772 3.772 0 0 0 60 46.453V21.102c0-2.08-1.689-3.77-3.766-3.77z"/></symbol></svg>