<?xml version="1.0" encoding="utf-8"?><svg xmlns="http://www.w3.org/2000/svg" xmlns:xlink="http://www.w3.org/1999/xlink"><symbol viewBox="0 0 511.958 511.958" id="behance" xmlns="http://www.w3.org/2000/svg"><path d="M210.624 240.619c10.624-5.344 18.656-11.296 24.16-17.728 9.792-11.584 14.624-26.944 14.624-45.984 0-18.528-4.832-34.368-14.496-47.648-16.128-21.632-43.424-32.704-82.016-33.28H0v312.096h142.56c16.064 0 30.944-1.376 44.704-4.192 13.76-2.848 25.664-8.064 35.744-15.68 8.96-6.624 16.448-14.848 22.4-24.544 9.408-14.656 14.112-31.264 14.112-49.76 0-17.92-4.128-33.184-12.32-45.728-8.288-12.544-20.448-21.728-36.576-27.552zM63.072 150.187h68.864c15.136 0 27.616 1.632 37.408 4.864 11.328 4.704 16.992 14.272 16.992 28.864 0 13.088-4.32 22.24-12.864 27.392-8.608 5.152-19.776 7.744-33.472 7.744H63.072v-68.864zm108.896 198.24c-7.616 3.68-18.336 5.504-32.064 5.504H63.072v-83.232h77.888c13.568.096 24.128 1.888 31.68 5.248 13.44 6.08 20.128 17.216 20.128 33.504 0 19.2-6.912 32.128-20.8 38.976zm155.2-237.888h135.584v38.848H327.168zm182.688 153.312c-2.816-18.08-9.024-33.984-18.688-47.712-10.592-15.552-24.032-26.944-40.384-34.144-16.288-7.232-34.624-10.848-55.04-10.816-34.272 0-62.112 10.72-83.648 32-21.472 21.344-32.224 52.032-32.224 92.032 0 42.656 11.872 73.472 35.744 92.384 23.776 18.944 51.232 28.384 82.4 28.384 37.728 0 67.072-11.232 88.032-33.632 13.408-14.144 20.992-28.064 22.656-41.728H446.24c-3.616 6.752-7.808 12.032-12.608 15.872-8.704 7.04-20.032 10.56-33.92 10.56-13.216 0-24.416-2.912-33.76-8.704-15.424-9.28-23.488-25.536-24.512-48.672h170.464c.256-19.936-.384-35.264-2.048-45.824zm-166.88 5.984c2.24-15.008 7.68-26.912 16.32-35.712 8.64-8.768 20.864-13.184 36.512-13.216 14.432 0 26.496 4.128 36.32 12.416 9.696 8.352 15.168 20.48 16.288 36.512h-105.44z"/></symbol><symbol viewBox="0 0 512 512" id="check" xmlns="http://www.w3.org/2000/svg"><path d="M504.502 75.496c-9.997-9.998-26.205-9.998-36.204 0L161.594 382.203 43.702 264.311c-9.997-9.998-26.205-9.997-36.204 0-9.998 9.997-9.998 26.205 0 36.203l135.994 135.992c9.994 9.997 26.214 9.99 36.204 0L504.502 111.7c9.998-9.997 9.997-26.206 0-36.204z"/></symbol><symbol viewBox="0 0 384.97 384.97" id="download" xmlns="http://www.w3.org/2000/svg"><path d="M372.939 264.667c-6.641 0-12.03 5.39-12.03 12.03v84.212H24.061v-84.212c0-6.641-5.39-12.03-12.03-12.03S0 270.056 0 276.697v96.242c0 6.641 5.39 12.03 12.03 12.03h360.909c6.641 0 12.03-5.39 12.03-12.03v-96.242c.001-6.641-5.389-12.03-12.03-12.03z"/><path d="M183.703 285.202c4.68 4.632 12.512 4.68 17.191 0l84.2-83.009a11.942 11.942 0 000-17.011c-4.74-4.704-12.439-4.704-17.179 0l-63.46 62.558V12.03c0-6.641-5.438-12.03-12.151-12.03s-12.151 5.39-12.151 12.03v235.71l-63.46-62.558c-4.752-4.704-12.439-4.704-17.179 0a11.931 11.931 0 000 17.011l84.189 83.009z"/></symbol><symbol viewBox="0 0 512 512" id="dribble" xmlns="http://www.w3.org/2000/svg"><path d="M256 0C115.04 0 0 115.05 0 256c0 140.96 115.05 256 256 256 140.96 0 256-115.05 256-256C512 115.04 396.95 0 256 0zm173.64 111.51c31.96 38.34 51.47 87.39 52.31 140.89-40.06-9.37-84.55-10-129.86-1.74a392.024 392.024 0 00-35.3 8.16 716.92 716.92 0 00-12.44-31.55 700.81 700.81 0 00-14.19-31.38c53.99-20.62 112.49-51.32 139.48-84.38zM256 30c58.82 0 112.45 22.59 152.7 59.54-15.7 21.41-60.44 52.58-132.22 79.46-25.06-46.66-55.11-89.54-89.83-128.1C208.51 33.83 231.82 30 256 30zm-99.05 22.9c35.41 37.93 65.87 80.29 90.96 126.05-74.68 24.17-150.29 34.03-212.46 27.66C50.59 138.96 96.14 82.67 156.95 52.9zM30 256c0-6.64.31-13.21.87-19.7 13.72 1.45 28.03 2.18 42.82 2.18 58.33 0 123.86-11.22 188.21-32.53 9.82 20.1 18.65 40.78 26.44 61.97-25.09 9.02-49.51 20.49-72.44 34.14-56.22 33.47-97.35 76.53-114.41 118.71C57.52 379.51 30 320.91 30 256zm226 226c-48.29 0-93.09-15.23-129.86-41.14 11.4-38.52 49.96-80.19 105.11-113.02 19.43-11.58 42.15-22.49 66.88-31.36 17.53 55.1 28.27 113.26 31.68 173.13C306.67 477.63 281.84 482 256 482zm103.07-24.9c-4.16-58.32-15.02-115.1-32.45-169.64 48.6-13.36 102.58-17.84 153.77-4.56-9.06 76.01-55.98 140.57-121.32 174.2z"/></symbol><symbol viewBox="0 0 96.124 96.123" id="facebook-logo" xmlns="http://www.w3.org/2000/svg"><path d="M72.089.02L59.624 0C45.62 0 36.57 9.285 36.57 23.656v10.907H24.037a1.96 1.96 0 00-1.96 1.961v15.803a1.96 1.96 0 001.96 1.96H36.57v39.876a1.96 1.96 0 001.96 1.96h16.352a1.96 1.96 0 001.96-1.96V54.287h14.654a1.96 1.96 0 001.96-1.96l.006-15.803a1.963 1.963 0 00-1.961-1.961H56.842v-9.246c0-4.444 1.059-6.7 6.848-6.7l8.397-.003a1.96 1.96 0 001.959-1.96V1.98A1.96 1.96 0 0072.089.02z"/></symbol><symbol viewBox="0 0 24.332 24.332" id="feed" xmlns="http://www.w3.org/2000/svg"><path d="M3.607 17.11A3.61 3.61 0 000 20.717c0 1.984 1.618 3.604 3.607 3.604s3.607-1.619 3.607-3.604a3.61 3.61 0 00-3.607-3.607z"/><path d="M.375 7.951A.377.377 0 000 8.328v4.578c0 .206.169.374.375.374 5.879 0 10.665 4.784 10.665 10.665 0 .205.166.375.375.375h4.597c.209 0 .377-.17.377-.375l-.018-.117C16.305 15.064 9.152 7.951.375 7.951z"/><path d="M24.311 23.828C24.246 10.681 13.531.01.375.01A.377.377 0 000 .387v4.711c0 .207.169.375.375.375 10.186 0 18.472 8.287 18.472 18.473 0 .205.168.375.373.375h4.733c.205 0 .379-.17.379-.375l-.021-.118z"/></symbol><symbol viewBox="0 0 438.536 438.535" id="inst" xmlns="http://www.w3.org/2000/svg"><path d="M5.424 145.895H99.64v282.932H5.424zm403.418 25.844c-19.791-21.604-45.967-32.408-78.512-32.408-11.991 0-22.891 1.475-32.695 4.427-9.801 2.95-18.079 7.089-24.838 12.419-6.755 5.33-12.135 10.278-16.129 14.844-3.798 4.337-7.512 9.389-11.136 15.104v-40.232h-93.935l.288 13.706c.193 9.139.288 37.307.288 84.508 0 47.205-.19 108.777-.572 184.722h93.931V270.942c0-9.705 1.041-17.412 3.139-23.127 4-9.712 10.037-17.843 18.131-24.407 8.093-6.572 18.13-9.855 30.125-9.855 16.364 0 28.407 5.662 36.117 16.987 7.707 11.324 11.561 26.98 11.561 46.966V428.82h93.931V266.664c-.007-41.688-9.897-73.328-29.694-94.925zM53.103 9.708c-15.796 0-28.595 4.619-38.4 13.848C4.899 32.787 0 44.441 0 58.529 0 72.42 4.758 84.034 14.275 93.358c9.514 9.325 22.078 13.99 37.685 13.99h.571c15.99 0 28.887-4.661 38.688-13.99 9.801-9.324 14.606-20.934 14.417-34.829-.19-14.087-5.047-25.742-14.561-34.973C81.562 14.323 68.9 9.708 53.103 9.708z"/></symbol><symbol viewBox="0 0 30 30" id="logo" xmlns="http://www.w3.org/2000/svg"><path d="M25.663 4.325l1.118.04c.31 0 .716-.029.959.04h1.517c.404.144.715.453.76.96h-.04l-.04.24h-.04v.12l-.08.04v.08l-.959.92-2.795 2.84H21.79l-.959 1-.2.16c-.277.385-.628.67-.958 1l-1.318 1.36a5.93 5.93 0 00-.719.64l-2.036 2.08h-.12l-.04.08-.2.04v.04c-.231.075-.65-.086-.758-.16l-.2-.24-.08-.04-.04-.16h-.04v-.08h-.04v-.079h-.04v-.48h.04l.04-.16h.04v-.12l.08-.04v-.08h.04c.057-.071.09-.096.12-.2h.08c.028-.124.077-.17.2-.2v-.08h.08v-.08h.079v-.08h.08v-.08H15c.029-.11.01-.09.12-.12v-.08h.08v-.08h.08v-.08h.08v-.08h.079v-.08h.08c.029-.11.011-.09.12-.12v-.08h.08v-.08h.08v-.08h.08v-.08h.08v-.08h.08c.028-.111.01-.09.119-.12v-.08h.08v-.08h.08v-.08h.08v-.08h.08v-.08h.08c.028-.111.01-.09.12-.12v-.08h.079v-.08h.08c.052-.198.416-.458.559-.6v-.04l1.318-1.281c.137-.138.365-.468.559-.52v-.08h.08v-.08h.08v-.08h.08c.028-.11.01-.09.12-.12v-.08h.079v-.08h.08v-.08h.08v-.08h.08v-.08c.11-.03.089-.011.12-.12h.08v-.08h.08v-.08h.08v-.08h.079c.079-.443.04-1.052.04-1.56v-2.8c.097-.057.13-.15.2-.2.34-.247.587-.55.878-.841l2.037-2 .559-.6h.08l.04-.08h.08l.04-.08c.067-.042.381-.124.519-.08v.04h.12v.04h.08l.04.08h.119v.04l.24.2v.08h.04v.08h.04v.12h.04v.68c.068.247-.03.667.04.92h.04v2.04zm-7.348 1.76l-.36-.12v-.04l-.239-.04v-.04h-.08v-.04l-.24-.04v-.04h-.119v-.04l-.28-.04v-.04l-.28-.04v-.04l-1.557-.28h-.519v-.04c-.207-.058-1.122-.004-1.278.04h-.519v.04h-.32v.04h-.279v.04h-.2v.04h-.24v.04h-.159v.04l-.36.04-1.437.48v.04l-.16.04v.04h-.08v.04h-.12v.04l-.239.08v.04h-.08v.04h-.08v.04l-.24.08-.04.08-.239.08-.04.08-.16.04-.04.08-.16.04v.04l-.119.04-.04.08h-.08l-.08.12h-.08l-.04.08h-.08l-.08.12h-.079l-.08.12h-.08l-.12.16h-.08l-.2.24h-.079l-.28.32-.678.64v.08l-.24.2v.08l-.16.12v.08l-.12.08v.08l-.12.08v.08l-.08.04v.08l-.119.08v.08l-.08.04v.08l-.08.04-.04.16-.08.04-.04.16-.08.04-.08.24-.08.04v.08h-.039v.08h-.04v.08h-.04v.08h-.04v.08h-.04l-.08.24h-.04v.12h-.04v.08h-.04v.08h-.04v.08h-.04v.12h-.04v.08h-.04c-.012.08-.026.16-.04.24H3.86v.08h-.04l-.4 1.44-.08.72H3.3v.32h-.04v.52h-.04c-.058.208-.004 1.126.04 1.28v.52h.04v.321h.04v.28h.04v.2h.04v.24h.04v.16h.04v.2h.04v.16h.04l.04.28h.04v.12h.04v.16h.04v.12h.04v.12h.039v.12h.04v.08h.04l.04.24h.04v.08h.04v.12h.04l.04.16h.04v.08h.04v.12h.04l.08.24h.04v.08h.04v.08h.039l.08.24.08.04.08.24.08.04.04.16.08.04.04.16.08.04v.08h.039l.04.12.08.04v.08l.12.08v.08l.12.08v.08l.12.08v.08l.159.12v.08l.24.2v.08l.679.64c.093.108.186.214.28.32h.079l.2.24h.08l.12.16h.08c.026.041.052.081.079.12h.08l.08.121h.08l.08.12h.08l.04.08h.08c.012.027.026.053.04.08l.119.04v.04l.16.04.04.08.16.04.04.08.239.08.04.08h.08v.04h.08v.04h.08v.04h.08v.04h.08v.04h.079v.04l.24.08v.04l.2.04v.04h.08v.04h.119v.04h.08v.04l.24.04v.04h.08v.04l.359.08v.04h.16v.04h.12v.04l.279.04v.04h.16v.04l.359.04v.04h.24v.04h.2v.04h.279v.04l.838.04v.04c.208.058 1.123.004 1.278-.04l.839-.04v-.04h.28v-.04h.2v-.04h.239v-.04h.16v-.04l.359-.04v-.04h.12v-.04h.16v-.04h.12v-.04h.16v-.04h.119v-.04h.12v-.04h.12v-.04h.08v-.04l.239-.04v-.04h.08v-.04h.12v-.04l.16-.04v-.04h.08v-.04h.119v-.04l.24-.08v-.04h.08v-.04h.08v-.04l.239-.08.04-.08.24-.08.04-.08.16-.04c.012-.027.026-.053.04-.08l.159-.04.04-.08h.08v-.04l.12-.04.04-.08h.08l.04-.08.119-.04.08-.12h.08l.08-.12h.08l.12-.16h.08l.199-.24h.08l.4-.44c.185-.174.372-.347.558-.52v-.08l.24-.2v-.08l.16-.12v-.08l.12-.08v-.08l.12-.08.039-.12.08-.04v-.08l.08-.04.04-.12h.04v-.08l.08-.04.04-.16.08-.04.04-.16.08-.04.079-.24.08-.04v-.08h.04v-.08h.04v-.08h.04v-.08h.04v-.08h.04v-.08h.04l.08-.24h.04v-.12h.04c.012-.054.026-.107.04-.16h.039l.48-1.44.04-.36h.04v-.16h.039v-.241h.04v-.2h.04l.08-.72v-.4h.04c.058-.208.003-1.125-.04-1.28l-.04-.84h-.04v-.28h-.04v-.2h-.04v-.24h-.04l-.04-.36h-.04v-.16h-.04l-.04-.28h-.04v-.12h-.04v-.16h-.04v-.12h-.04v-.12h-.04v-.12h-.04v-.08h-.04l-.039-.24h-.04l-.12-.36c.83.003 1.917.093 2.556-.12l.52-.08v-.04l.119-.04v-.04c.078-.02.053.023.08.04.137.124.125.407.2.6.177.455.252 1.026.399 1.52l.04.52h.04v.28h.04v.4h.04v.52c.084.308.086 1.212 0 1.52v.52h-.04v.4h-.04v.28h-.04v.28c-.056.188-.103.458-.16.64v.2h-.04v.16h-.04v.16h-.04v.16h-.04v.16h-.04v.16h-.04v.12h-.04v.12h-.04v.12h-.04l-.04.28h-.04v.08h-.04c-.026.12-.052.24-.08.36h-.039v.08h-.04v.12h-.04l-.04.2h-.04v.08h-.04v.12h-.04l-.08.24h-.04v.08h-.04v.12h-.04l-.08.24h-.04v.08h-.039l-.08.24-.08.04v.08h-.04v.08h-.04v.08h-.04v.08l-.08.04-.08.24-.08.04v.08l-.079.04-.04.16-.08.04v.08l-.08.04v.08l-.08.04v.08h-.04l-.04.12-.08.041v.08l-.12.08v.08l-.119.08v.08l-.12.08v.08l-.16.12v.08l-.16.12c-.317.442-.663.745-1.037 1.12l-.4.44h-.08l-.2.24h-.08l-.159.2h-.08l-.12.16h-.08l-.08.12h-.08l-.08.12h-.079l-.08.12h-.08l-.04.08-.12.04v.04h-.08l-.04.08h-.08c-.012.027-.026.053-.04.08h-.079l-.04.08-.16.04-.04.08-.12.04v.04h-.08v.04h-.08v.04h-.079l-.04.08h-.08v.04h-.08v.04h-.08v.04h-.08l-.04.08-.239.08v.04h-.08v.04l-.24.08v.04h-.12v.04h-.08v.04l-.239.08v.04h-.12v.04h-.08v.04h-.12v.04h-.079v.04h-.12v.04h-.08v.04l-.36.08v.04h-.079v.04l-.28.04v.04h-.12v.04h-.12v.04h-.119v.04h-.16v.04h-.16v.04h-.16v.04h-.159v.04h-.16v.04h-.2v.04h-.199v.04h-.2v.04h-.24v.04l-.558.04v.04l-1.598.08-1.397-.04v-.04h-.36v-.04h-.32l-1.876-.4c-.951-.342-1.924-.66-2.716-1.16h-.08v-.04h-.08v-.04h-.08v-.04h-.08a21.835 21.835 0 00-.04-.08l-.239-.08v-.04l-.12-.04a20.669 20.669 0 00-.04-.08l-.16-.04v-.04l-.12-.04a20.669 20.669 0 01-.04-.08h-.079a12.553 12.553 0 01-.04-.08h-.08v-.04l-.12-.04a33.032 33.032 0 00-.04-.08h-.08l-.08-.12h-.08l-.079-.12h-.08l-.08-.12h-.08l-.12-.16h-.08l-.08-.12h-.04a20.669 20.669 0 00-.039-.08h-.08l-.2-.24h-.08l-.479-.52-.679-.64v-.08l-.24-.2v-.08l-.199-.16v-.08l-.16-.12v-.08l-.12-.08v-.08l-.12-.08v-.08l-.119-.08v-.08l-.08-.04-.04-.12h-.04v-.08l-.08-.04v-.08a9.694 9.694 0 01-.08-.04v-.08a66.141 66.141 0 00-.08-.04l-.04-.16-.08-.04a55.97 55.97 0 01-.04-.12h-.039l-.08-.24-.08-.04v-.08h-.04v-.08h-.04v-.08h-.04v-.08c-.496-.793-.82-1.768-1.158-2.72l-.04-.32h-.04v-.161h-.04v-.16h-.04v-.16h-.04v-.2h-.04l-.04-.4h-.04v-.24h-.04v-.28H.146l-.04-.68h-.04v-.52c-.085-.309-.087-1.212 0-1.52v-.52h.04l.04-.68h.04v-.28c.055-.189.103-.458.16-.64v-.2h.04v-.16h.04v-.16h.04v-.16h.04v-.16h.04v-.16h.04v-.12h.04v-.12h.04v-.12h.04v-.16h.04v-.12h.039v-.08h.04l.08-.36h.04v-.081h.04v-.12h.04v-.08h.04v-.12h.04v-.08h.04v-.12h.04l.08-.24h.04v-.08h.04v-.12h.039l.08-.24h.04v-.08h.04l.08-.24.08-.04v-.08h.04v-.08h.04v-.08h.04v-.08l.08-.04.079-.24h.04l.04-.12.08-.04.04-.16h.04l.04-.12.08-.04v-.08h.04l.04-.12.08-.04v-.08l.119-.08v-.08l.08-.04v-.08l.12-.08v-.08l.12-.08v-.08l.16-.12v-.08l.119-.08v-.04l.08-.04v-.08l.24-.2v-.08l.598-.56.56-.6h.08l.2-.24h.079l.16-.2h.08l.12-.16h.08l.08-.12h.079l.08-.12h.08l.04-.08h.08l.08-.12h.08l.04-.08h.08c.012-.027.026-.054.04-.08h.079l.04-.08h.08l.04-.08.16-.04.04-.08.12-.04v-.04h.079v-.04h.08v-.04h.08l.04-.08h.08v-.04h.08v-.04h.08v-.04h.08c.012-.027.026-.054.04-.08h.079v-.04l.24-.08v-.04l.24-.08v-.04h.119v-.04h.08v-.04l.24-.08v-.04h.12v-.04h.08v-.04h.119v-.04h.08v-.04h.12v-.04h.08v-.04l.359-.08v-.04h.08v-.04l.28-.04v-.04h.12v-.04h.119v-.04h.12v-.04l.32-.04v-.04h.159v-.04h.16v-.04h.16v-.04h.2v-.04l.398-.04v-.04h.24v-.04h.28v-.04h.28v-.04h.359v-.04h.559c.307-.086 1.21-.088 1.517 0h.56v.04h.359v.04h.28v.04h.279v.04l.439.04v.04c.133.012.266.026.4.04v.04l.319.04v.04h.16v.04h.16v.04h.159v.04h.12v.04h.12v.04h.12v.04h.16v.04h.119v.04l.2.04v.04a1.078 1.078 0 00-.2.24v.2h-.04v.16h-.04v.16h-.04v.16h-.04v.16h-.04v2.16zm3.435 6.64l.12.4h.04v.12h.04v.12h.04v.12h.04l.04.28h.04l.239 1.24v.44h.04v.6c0 .527-.036 1.07-.16 1.48l-.04.401h-.04l-.04.32h-.04l-.04.28h-.04v.12h-.04v.12h-.04v.12h-.04v.08h-.04v.12h-.04v.08h-.04v.12h-.04l-.04.16h-.04v.08h-.039v.12h-.04l-.04.16h-.04l-.04.16-.08.04-.08.24-.08.04-.04.16h-.04l-.04.12-.079.04v.08h-.04l-.04.12-.08.04v.08l-.12.08v.08l-.12.08v.08l-.199.16v.08l-.4.36-.519.56h-.08a10.77 10.77 0 01-.16.2h-.079l-.08.12h-.08l-.08.12h-.08l-.04.08-.12.04v.04h-.08c-.012.027-.026.054-.039.08l-.12.04v.04l-.16.04-.04.08-.24.08c-.012.028-.026.054-.04.08l-.159.04v.04l-.16.04v.04h-.12v.04h-.08v.04l-.159.04v.04h-.12v.04h-.08v.04l-.2.04v.04h-.12v.04h-.119v.04h-.12v.04c-.093.014-.186.028-.28.04v.04l-.319.041v.04h-.2v.04h-.2v.04h-.239v.04H15v.04h-.438c-.437.122-1.467.028-1.837-.08h-.24l-1.358-.36v-.04h-.08v-.04h-.12v-.04h-.08v-.04h-.12v-.04l-.159-.04v-.04h-.08v-.04l-.36-.12a33.032 33.032 0 00-.04-.08h-.08v-.04H9.93v-.04h-.08v-.04h-.08l-.04-.08-.16-.04a12.738 12.738 0 01-.04-.08h-.08a1.193 1.193 0 00-.04-.08h-.08v-.04l-.12-.04a10.245 10.245 0 01-.04-.08h-.08l-.08-.12h-.08l-.08-.12h-.079l-.16-.2h-.08l-.679-.72-.24-.2v-.08l-.199-.16v-.08l-.12-.08v-.08l-.12-.08v-.08l-.08-.04v-.08l-.08-.04v-.08l-.08-.04v-.08l-.079-.04-.04-.16-.08-.04v-.08h-.04v-.08h-.04v-.08h-.04v-.081l-.08-.04-.12-.36h-.04v-.08h-.04l-.039-.16h-.04v-.12h-.04v-.08h-.04v-.12h-.04v-.08h-.04v-.12h-.04v-.12h-.04v-.12h-.04v-.16h-.04v-.12h-.04l-.239-1.24v-.44h-.04c-.054-.194 0-.98.04-1.12v-.44c.08-.285.112-.651.2-.92v-.16h.04v-.16h.04v-.12h.04v-.16h.04v-.12h.04v-.12h.04v-.12h.04v-.08h.04v-.12h.04v-.08h.04v-.12h.039l.04-.16h.04v-.08h.04v-.12h.04l.04-.16h.04v-.08l.08-.04v-.08h.04v-.08h.04v-.08h.04v-.081l.08-.04c.012-.053.026-.106.04-.16h.04l.039-.12.08-.04v-.08h.04l.04-.12.08-.04v-.08l.12-.08v-.08l.12-.08v-.08l.199-.16v-.08l.48-.44.438-.48h.08l.16-.2h.08l.08-.12h.08l.08-.12h.08l.04-.08.119-.04v-.04h.08l.04-.08.12-.04v-.04l.16-.04.04-.08.239-.08v-.04h.08l.04-.08.36-.12v-.04h.079v-.04l.16-.04v-.04h.12v-.04h.08v-.04h.12v-.04h.08v-.04h.119v-.04h.12v-.04h.12v-.04l.28-.04v-.04h.159v-.04h.16v-.04h.2v-.04h.199v-.04h.24v-.04h.279v-.04h.44c.14-.04.925-.094 1.117-.04v.04h.44v.04h.28v.04h.239v.04h.2v.04l.359.04v.04h.16v.04l.28.04v.04h.12v.04h.119v.04h.12v.04h.08v.04c.147.064.3.049.399.16h-.04c-.061.107-.157.157-.24.24l-.479.48-.44.48-.199.16v.08l-.12.04-.04.08-.2.16a77.95 77.95 0 01-.199.28h-.08l-.479.52h-.4c-.05-.045-.749-.077-.878-.04v.04h-.36v.04h-.199v.04h-.2v.04h-.16v.04h-.12v.04h-.159v.04h-.08v.04l-.24.04v.04l-.16.04v.04h-.119v.04h-.08v.04h-.08l-.04.08-.24.08-.04.08-.159.04-.08.12h-.08l-.04.08h-.08l-.12.16c-.746.54-1.253 1.34-1.637 2.24l-.04.28h-.04v.12h-.04v.16h-.04v.2c-.163.54-.166 1.461 0 2l.04.361h.04v.12h.04l.04.28h.04v.08h.04v.12h.04l.04.16h.04l.12.36.08.04.04.16.08.04.04.16.12.08.04.12h.04v.08l.159.12c.65.906 1.612 1.426 2.795 1.8h.2v.04h.2v.04h.36v.04c.195.055.739 0 .878-.04h.359v-.04h.2v-.04h.2v-.04h.16v-.04h.119v-.04h.16v-.04h.08v-.04l.24-.04v-.04l.159-.04v-.04l.36-.12.04-.08.16-.04.039-.08h.08v-.04h.08l.08-.12h.08l.04-.08h.08l.12-.16h.079l.36-.4.279-.24v-.08l.16-.12v-.08l.08-.04v-.08l.12-.08v-.08h.04v-.08l.08-.04.039-.16.08-.04v-.08h.04l.04-.16h.04v-.12h.04l.04-.16h.04l.04-.2h.04l.04-.28h.04v-.12h.04v-.16h.04v-.2h.039v-.2h.04v-.36c.103-.369 0-.846 0-1.24l.28-.2.04-.12.479-.4v-.08h.04l.16-.2h.08l.04-.08h.04l.358-.44h.08l.08-.12.08-.04v-.08l.24-.2.04-.08h.08l.08-.12.08-.04v-.08h.04l.159-.2h.12z"/></symbol><symbol viewBox="0 0 511.626 511.626" id="mail" xmlns="http://www.w3.org/2000/svg"><path d="M49.106 178.729c6.472 4.567 25.981 18.131 58.528 40.685 32.548 22.554 57.482 39.92 74.803 52.099 1.903 1.335 5.946 4.237 12.131 8.71 6.186 4.476 11.326 8.093 15.416 10.852 4.093 2.758 9.041 5.852 14.849 9.277 5.806 3.422 11.279 5.996 16.418 7.7 5.14 1.718 9.898 2.569 14.275 2.569h.575c4.377 0 9.137-.852 14.277-2.569 5.137-1.704 10.615-4.281 16.416-7.7 5.804-3.429 10.752-6.52 14.845-9.277 4.093-2.759 9.229-6.376 15.417-10.852 6.184-4.477 10.232-7.375 12.135-8.71 17.508-12.179 62.051-43.11 133.615-92.79 13.894-9.703 25.502-21.411 34.827-35.116 9.332-13.699 13.993-28.07 13.993-43.105 0-12.564-4.523-23.319-13.565-32.264-9.041-8.947-19.749-13.418-32.117-13.418H45.679c-14.655 0-25.933 4.948-33.832 14.844C3.949 79.562 0 91.934 0 106.779c0 11.991 5.236 24.985 15.703 38.974 10.466 13.99 21.604 24.983 33.403 32.976z"/><path d="M483.072 209.275c-62.424 42.251-109.824 75.087-142.177 98.501-10.849 7.991-19.65 14.229-26.409 18.699-6.759 4.473-15.748 9.041-26.98 13.702-11.228 4.668-21.692 6.995-31.401 6.995h-.578c-9.707 0-20.177-2.327-31.405-6.995-11.228-4.661-20.223-9.229-26.98-13.702-6.755-4.47-15.559-10.708-26.407-18.699-25.697-18.842-72.995-51.68-141.896-98.501C17.987 202.047 8.375 193.762 0 184.437v226.685c0 12.57 4.471 23.319 13.418 32.265 8.945 8.949 19.701 13.422 32.264 13.422h420.266c12.56 0 23.315-4.473 32.261-13.422 8.949-8.949 13.418-19.694 13.418-32.265V184.437c-8.186 9.132-17.7 17.417-28.555 24.838z"/></symbol><symbol viewBox="0 0 363.868 363.868" id="progress" xmlns="http://www.w3.org/2000/svg"><path d="M92.723 274.945c-3.178 3.178-5.747 9.388-5.747 13.875v58.444h33.929v-92.373c0-4.487-2.569-5.56-5.747-2.382l-22.435 22.436zm149.029-55.372c-3.17 3.178-5.747 9.389-5.747 13.884v113.816h33.929V199.487c0-4.487-2.569-5.552-5.747-2.374l-22.435 22.46zm49.666-49.739c-3.178 3.17-5.755 9.38-5.755 13.867v163.563h31.547V152.212c0-4.487-2.577-5.56-5.755-2.382l-20.037 20.004zm-98.34 98.405s-1.512 1.52-3.381 3.39c-1.861 1.87-3.373 7.031-3.373 11.518v64.118h33.929v-98.047c0-4.487-2.577-5.56-5.755-2.382l-21.42 21.403zm-50.673-17.241c-3.178-3.17-5.755-2.105-5.755 2.382v93.885h33.929v-60.03c0-4.487-2.439-10.559-5.454-13.558l-5.454-5.43-17.266-17.249zm-92.382 66.671l-10.957 10.974c-3.17 3.178-5.739 8.633-5.739 12.193v6.438h37.871V304.59c0-4.487-2.569-5.552-5.747-2.374l-15.428 15.453z"/><path d="M358.121 150.724c3.17 3.178 5.747 2.105 5.747-2.382V32.193c0-8.316-7.966-15.599-16.233-15.599H232.16c-4.487 0-5.56 2.577-2.382 5.755l41.074 41.106-16.753 16.68-77.701 77.774L135.3 116.82c-3.178-3.178-8.316-3.17-11.494 0L9.519 231.189c-12.697 12.705-12.689 33.295.008 45.991l.797.805c12.697 12.697 33.287 12.697 45.975-.008l73.247-73.287 41.098 41.057a8.144 8.144 0 0011.502 0l135.479-135.503 40.496 40.48z"/></symbol><symbol viewBox="0 0 478.703 478.703" id="settings" xmlns="http://www.w3.org/2000/svg"><path d="M454.2 189.101l-33.6-5.7c-3.5-11.3-8-22.2-13.5-32.6l19.8-27.7c8.4-11.8 7.1-27.9-3.2-38.1l-29.8-29.8c-5.6-5.6-13-8.7-20.9-8.7-6.2 0-12.1 1.9-17.1 5.5l-27.8 19.8c-10.8-5.7-22.1-10.4-33.8-13.9l-5.6-33.2a29.54 29.54 0 00-29.2-24.7h-42.1c-14.5 0-26.8 10.4-29.2 24.7l-5.8 34c-11.2 3.5-22.1 8.1-32.5 13.7l-27.5-19.8c-5-3.6-11-5.5-17.2-5.5-7.9 0-15.4 3.1-20.9 8.7l-29.9 29.8c-10.2 10.2-11.6 26.3-3.2 38.1l20 28.1c-5.5 10.5-9.9 21.4-13.3 32.7l-33.2 5.6a29.54 29.54 0 00-24.7 29.2v42.1c0 14.5 10.4 26.8 24.7 29.2l34 5.8c3.5 11.2 8.1 22.1 13.7 32.5l-19.7 27.4c-8.4 11.8-7.1 27.9 3.2 38.1l29.8 29.8c5.6 5.6 13 8.7 20.9 8.7 6.2 0 12.1-1.9 17.1-5.5l28.1-20c10.1 5.3 20.7 9.6 31.6 13l5.6 33.6a29.54 29.54 0 0029.2 24.7h42.2c14.5 0 26.8-10.4 29.2-24.7l5.7-33.6c11.3-3.5 22.2-8 32.6-13.5l27.7 19.8c5 3.6 11 5.5 17.2 5.5 7.9 0 15.3-3.1 20.9-8.7l29.8-29.8c10.2-10.2 11.6-26.3 3.2-38.1l-19.8-27.8c5.5-10.5 10.1-21.4 13.5-32.6l33.6-5.6a29.54 29.54 0 0024.7-29.2v-42.1c.2-14.5-10.2-26.8-24.5-29.2zm-2.3 71.3c0 1.3-.9 2.4-2.2 2.6l-42 7c-5.3.9-9.5 4.8-10.8 9.9-3.8 14.7-9.6 28.8-17.4 41.9-2.7 4.6-2.5 10.3.6 14.7l24.7 34.8c.7 1 .6 2.5-.3 3.4l-29.8 29.8c-.7.7-1.4.8-1.9.8-.6 0-1.1-.2-1.5-.5l-34.7-24.7c-4.3-3.1-10.1-3.3-14.7-.6-13.1 7.8-27.2 13.6-41.9 17.4-5.2 1.3-9.1 5.6-9.9 10.8l-7.1 42c-.2 1.3-1.3 2.2-2.6 2.2h-42.1c-1.3 0-2.4-.9-2.6-2.2l-7-42c-.9-5.3-4.8-9.5-9.9-10.8-14.3-3.7-28.1-9.4-41-16.8-2.1-1.2-4.5-1.8-6.8-1.8-2.7 0-5.5.8-7.8 2.5l-35 24.9c-.5.3-1 .5-1.5.5-.4 0-1.2-.1-1.9-.8l-29.8-29.8c-.9-.9-1-2.3-.3-3.4l24.6-34.5c3.1-4.4 3.3-10.2.6-14.8-7.8-13-13.8-27.1-17.6-41.8-1.4-5.1-5.6-9-10.8-9.9l-42.3-7.2c-1.3-.2-2.2-1.3-2.2-2.6v-42.1c0-1.3.9-2.4 2.2-2.6l41.7-7c5.3-.9 9.6-4.8 10.9-10 3.7-14.7 9.4-28.9 17.1-42 2.7-4.6 2.4-10.3-.7-14.6l-24.9-35c-.7-1-.6-2.5.3-3.4l29.8-29.8c.7-.7 1.4-.8 1.9-.8.6 0 1.1.2 1.5.5l34.5 24.6c4.4 3.1 10.2 3.3 14.8.6 13-7.8 27.1-13.8 41.8-17.6 5.1-1.4 9-5.6 9.9-10.8l7.2-42.3c.2-1.3 1.3-2.2 2.6-2.2h42.1c1.3 0 2.4.9 2.6 2.2l7 41.7c.9 5.3 4.8 9.6 10 10.9 15.1 3.8 29.5 9.7 42.9 17.6 4.6 2.7 10.3 2.5 14.7-.6l34.5-24.8c.5-.3 1-.5 1.5-.5.4 0 1.2.1 1.9.8l29.8 29.8c.9.9 1 2.3.3 3.4l-24.7 34.7c-3.1 4.3-3.3 10.1-.6 14.7 7.8 13.1 13.6 27.2 17.4 41.9 1.3 5.2 5.6 9.1 10.8 9.9l42 7.1c1.3.2 2.2 1.3 2.2 2.6v42.1h-.1z"/><path d="M239.4 136.001c-57 0-103.3 46.3-103.3 103.3s46.3 103.3 103.3 103.3 103.3-46.3 103.3-103.3-46.3-103.3-103.3-103.3zm0 179.6c-42.1 0-76.3-34.2-76.3-76.3s34.2-76.3 76.3-76.3 76.3 34.2 76.3 76.3-34.2 76.3-76.3 76.3z"/></symbol><symbol viewBox="0 0 410.155 410.155" id="twitter" xmlns="http://www.w3.org/2000/svg"><path d="M403.632 74.18a162.414 162.414 0 01-28.28 9.537 88.177 88.177 0 0023.275-37.067c1.295-4.051-3.105-7.554-6.763-5.385a163.188 163.188 0 01-43.235 17.862 11.02 11.02 0 01-2.702.336c-2.766 0-5.455-1.027-7.57-2.891-16.156-14.239-36.935-22.081-58.508-22.081-9.335 0-18.76 1.455-28.014 4.325-28.672 8.893-50.795 32.544-57.736 61.724-2.604 10.945-3.309 21.9-2.097 32.56a3.166 3.166 0 01-.797 2.481 3.278 3.278 0 01-2.753 1.091c-62.762-5.831-119.358-36.068-159.363-85.14-2.04-2.503-5.952-2.196-7.578.593-7.834 13.44-11.974 28.812-11.974 44.454 0 23.972 9.631 46.563 26.36 63.032a79.24 79.24 0 01-20.169-7.808c-3.06-1.7-6.825.485-6.868 3.985-.438 35.612 20.412 67.3 51.646 81.569a79.567 79.567 0 01-16.786-1.399c-3.446-.658-6.341 2.611-5.271 5.952 10.138 31.651 37.39 54.981 70.002 60.278-27.066 18.169-58.585 27.753-91.39 27.753l-10.227-.006c-3.151 0-5.816 2.054-6.619 5.106-.791 3.006.666 6.177 3.353 7.74 36.966 21.513 79.131 32.883 121.955 32.883 37.485 0 72.549-7.439 104.219-22.109 29.033-13.449 54.689-32.674 76.255-57.141 20.09-22.792 35.8-49.103 46.692-78.201 10.383-27.737 15.871-57.333 15.871-85.589v-1.346c-.001-4.537 2.051-8.806 5.631-11.712a174.776 174.776 0 0035.16-38.591c2.573-3.849-1.485-8.673-5.719-6.795z"/></symbol><symbol viewBox="0 0 329.312 329.311" id="two-users" xmlns="http://www.w3.org/2000/svg"><path d="M275.342 199.306a69.763 69.763 0 01-29.939 16.67c10.664 16.892 17.948 36.208 20.639 57.105.516 4.035-.229 7.95-1.946 11.499h58.541c1.874 0 3.705-.858 5.008-2.348 1.249-1.418 1.844-3.23 1.622-4.96-4.32-33.639-25.468-62.359-53.925-77.966zm-67.512-23.064c2.342 1.663 4.594 3.441 6.821 5.242 2.24 1.813 4.456 3.651 6.575 5.597a141.951 141.951 0 0116.604 18.032 57.339 57.339 0 0025.4-11.535c1.825-1.453 3.572-2.984 5.206-4.636 1.531-1.549 2.948-3.206 4.294-4.912 7.722-9.812 12.369-22.139 12.369-35.56 0-31.771-25.851-57.622-57.622-57.622-6.677 0-13.066 1.198-19.035 3.302 2.084 7.341 3.272 15.057 3.272 23.059 0 19.053-6.395 36.602-17.053 50.77 4.54 2.534 8.947 5.255 13.169 8.263zm-86.25 108.339h122.663c2.925 0 5.669-1.219 7.536-3.333 1.64-1.855 2.372-4.203 2.054-6.599-2.679-20.915-10.395-40.082-21.708-56.487-1.393-2.012-2.804-4.005-4.299-5.933-1.718-2.198-3.543-4.3-5.387-6.39a129.664 129.664 0 00-17.396-16.327 123.387 123.387 0 00-6.623-4.791c-2.204-1.496-4.408-2.973-6.702-4.33-1.717-1.021-3.488-1.957-5.26-2.9a84.513 84.513 0 01-5.428 4.942c-1.58 1.309-3.243 2.51-4.918 3.711a80.923 80.923 0 01-5.123 3.362c-.834.511-1.65 1.045-2.51 1.525-.258.145-.498.318-.756.457a84.157 84.157 0 01-40.77 10.496c-23.182 0-44.198-9.374-59.517-24.5-35.773 19.006-61.9 54.523-67.368 97.122-.312 2.413.426 4.768 2.078 6.647 1.858 2.107 4.6 3.326 7.509 3.326H121.58z"/><path d="M74.707 167.295a74.369 74.369 0 004.765 4.527c12.733 11.085 29.312 17.852 47.483 17.852 13.823 0 26.709-3.963 37.716-10.706a75.244 75.244 0 005.131-3.453 71.256 71.256 0 004.63-3.692c.102-.09.198-.187.3-.271a70.843 70.843 0 004.462-4.257 73.069 73.069 0 004.317-4.9c9.932-12.403 15.913-28.1 15.913-45.195 0-6.092-.835-11.977-2.264-17.639a72.265 72.265 0 00-1.814-6.107 74.99 74.99 0 00-2.275-5.779c-11.331-25.271-36.674-42.943-66.116-42.943-39.956 0-72.466 32.51-72.466 72.469 0 17.09 5.978 32.786 15.907 45.189a70.775 70.775 0 004.311 4.905z"/></symbol><symbol viewBox="0 0 512 512" id="user" xmlns="http://www.w3.org/2000/svg"><path d="M437.02 330.98c-27.883-27.882-61.071-48.523-97.281-61.018C378.521 243.251 404 198.548 404 148 404 66.393 337.607 0 256 0S108 66.393 108 148c0 50.548 25.479 95.251 64.262 121.962-36.21 12.495-69.398 33.136-97.281 61.018C26.629 379.333 0 443.62 0 512h40c0-119.103 96.897-216 216-216s216 96.897 216 216h40c0-68.38-26.629-132.667-74.98-181.02zM256 256c-59.551 0-108-48.448-108-108S196.449 40 256 40s108 48.448 108 108-48.449 108-108 108z"/></symbol></svg>