<?xml version="1.0" encoding="utf-8"?><svg xmlns="http://www.w3.org/2000/svg" xmlns:xlink="http://www.w3.org/1999/xlink"><symbol viewBox="0 -28 512 512" id="heart" xmlns="http://www.w3.org/2000/svg"><path d="M471.383 44.578C444.879 15.832 408.512 0 368.973 0c-29.555 0-56.621 9.344-80.45 27.77C276.5 37.07 265.605 48.45 256 61.73c-9.602-13.277-20.5-24.66-32.527-33.96C199.648 9.344 172.582 0 143.027 0c-39.539 0-75.91 15.832-102.414 44.578C14.426 72.988 0 111.801 0 153.871c0 43.3 16.137 82.938 50.781 124.742 30.992 37.395 75.535 75.356 127.117 119.313 17.614 15.012 37.579 32.027 58.309 50.152A30.023 30.023 0 00256 455.516a30.03 30.03 0 0019.785-7.43c20.73-18.129 40.707-35.152 58.328-50.172 51.575-43.95 96.117-81.906 127.11-119.305C495.867 236.81 512 197.172 512 153.867c0-42.066-14.426-80.879-40.617-109.289zm0 0"/></symbol><symbol viewBox="0 0 29 52" id="quotes" xmlns="http://www.w3.org/2000/svg"><path d="M14.283 28.648a14.23 14.23 0 004.626-.78c-3.215 18.434-17.59 30.322-4.264 20.538C29.42 37.556 28.58 14.8 28.565 14.385v-.02c0-7.888-6.394-14.282-14.282-14.282C6.394.083 0 6.477 0 14.365c0 7.889 6.395 14.283 14.283 14.283z"/></symbol></svg>